<svg width="900" height="420" viewBox="0 0 900 420" xmlns="http://www.w3.org/2000/svg">
  <defs>
    <linearGradient id="bg" x1="0" y1="0" x2="1" y2="1">
      <stop offset="0%" stop-color="#102030"/>
      <stop offset="100%" stop-color="#1f3a57"/>
    </linearGradient>
  </defs>
  <rect width="900" height="420" fill="url(#bg)" rx="20"/>
  <text x="34" y="48" fill="#f6fbff" font-size="30" font-family="Microsoft YaHei">装箱三维示意（Demo）</text>
  <rect x="80" y="95" width="280" height="230" fill="#f59f00" opacity="0.90"/>
  <rect x="95" y="110" width="90" height="90" fill="#fff3bf"/>
  <rect x="195" y="110" width="75" height="90" fill="#ffd43b"/>
  <rect x="280" y="110" width="60" height="90" fill="#ffe066"/>
  <rect x="95" y="210" width="105" height="95" fill="#ffd43b"/>
  <rect x="210" y="210" width="130" height="95" fill="#fff3bf"/>
  <rect x="420" y="95" width="380" height="230" fill="#0ca678" opacity="0.90"/>
  <rect x="440" y="120" width="70" height="80" fill="#e6fcf5"/>
  <rect x="520" y="120" width="70" height="80" fill="#c3fae8"/>
  <rect x="600" y="120" width="70" height="80" fill="#96f2d7"/>
  <rect x="680" y="120" width="100" height="80" fill="#63e6be"/>
  <rect x="440" y="210" width="95" height="95" fill="#63e6be"/>
  <rect x="545" y="210" width="110" height="95" fill="#38d9a9"/>
  <rect x="665" y="210" width="115" height="95" fill="#20c997"/>
  <text x="88" y="350" fill="#fff9db" font-size="18" font-family="Microsoft YaHei">外箱 A: 460*350*280mm</text>
  <text x="428" y="350" fill="#e6fcf5" font-size="18" font-family="Microsoft YaHei">外箱 B: 420*330*260mm</text>
</svg>
